<svg xmlns="http://www.w3.org/2000/svg" viewBox="0 0 24 24" role="img" aria-hidden="false" aria-label="Navigate to Instagram" focusable="false" style="height:18px;width:18px;display:block;fill:#000000"><path d="m23.09.91c-.61-.61-1.33-.91-2.17-.91h-17.84c-.85 0-1.57.3-2.17.91s-.91 1.33-.91 2.17v17.84c0 .85.3 1.57.91 2.17s1.33.91 2.17.91h17.84c.85 0 1.57-.3 2.17-.91s.91-1.33.91-2.17v-17.84c0-.85-.3-1.57-.91-2.17zm-14.48 7.74c.94-.91 2.08-1.37 3.4-1.37 1.33 0 2.47.46 3.41 1.37s1.41 2.01 1.41 3.3-.47 2.39-1.41 3.3-2.08 1.37-3.41 1.37c-1.32 0-2.46-.46-3.4-1.37s-1.41-2.01-1.41-3.3.47-2.39 1.41-3.3zm12.66 11.63c0 .27-.09.5-.28.68a.92.92 0 0 1 -.67.28h-16.7a.93.93 0 0 1 -.68-.28.92.92 0 0 1 -.27-.68v-10.13h2.2a6.74 6.74 0 0 0 -.31 2.05c0 2 .73 3.71 2.19 5.12s3.21 2.12 5.27 2.12a7.5 7.5 0 0 0 3.75-.97 7.29 7.29 0 0 0 2.72-2.63 6.93 6.93 0 0 0 1-3.63c0-.71-.11-1.39-.31-2.05h2.11v10.12zm0-13.95c0 .3-.11.56-.31.77a1.05 1.05 0 0 1 -.77.31h-2.72c-.3 0-.56-.11-.77-.31a1.05 1.05 0 0 1 -.31-.77v-2.58c0-.29.11-.54.31-.76s.47-.32.77-.32h2.72c.3 0 .56.11.77.32s.31.47.31.76z" fill-rule="evenodd"></path></svg>