<svg xmlns="http://www.w3.org/2000/svg" viewBox="0 0 32 32" role="img" aria-hidden="false" aria-label="Navigate to Twitter" focusable="false" style="height:18px;width:18px;display:block;fill:#000000"><path d="m31 6.36c-1.16.49-2.32.82-3.55.95 1.29-.76 2.22-1.87 2.72-3.38a13.05 13.05 0 0 1 -3.91 1.51c-1.23-1.28-2.75-1.94-4.51-1.94-3.41 0-6.17 2.73-6.17 6.12 0 .49.07.95.17 1.38-4.94-.23-9.51-2.6-12.66-6.38-.56.95-.86 1.97-.86 3.09 0 2.07 1.03 3.91 2.75 5.06-1-.03-1.92-.3-2.82-.76v.07c0 2.89 2.12 5.42 4.94 5.98-.63.17-1.16.23-1.62.23-.3 0-.7-.03-1.13-.13a6.07 6.07 0 0 0 5.74 4.24c-2.22 1.74-4.78 2.63-7.66 2.63-.56 0-1.06-.03-1.43-.1 2.85 1.84 6 2.76 9.41 2.76 7.29 0 12.83-4.01 15.51-9.3 1.36-2.66 2.02-5.36 2.02-8.09v-.46c-.03-.17-.03-.3-.03-.33a12.66 12.66 0 0 0 3.09-3.16" fill-rule="evenodd"></path></svg>